<?xml version="1.0" encoding="utf-8"?>
<!-- Generator: Adobe Illustrator 23.0.1, SVG Export Plug-In . SVG Version: 6.00 Build 0)  -->
<svg version="1.1" id="Camada_1" xmlns="http://www.w3.org/2000/svg" xmlns:xlink="http://www.w3.org/1999/xlink" x="0px" y="0px"
	 viewBox="0 0 580 360" style="enable-background:new 0 0 580 360;" xml:space="preserve">
<style type="text/css">
	.st0{fill:#FF4B4B;}
	.st1{fill:#E6E6E6;}
	.st2{fill:#1A1A1A;}
	.st3{fill:#FFFFFF;}
</style>
<g>
	<path class="st3" d="M242.5,299.8c0-1.7,0.2-3.5,0.6-5.2c0.4-1.7,1.1-3.4,2-5.1c1-1.7,2.3-3.4,4-5c1.7-1.7,3.9-3.4,6.5-5.1
		l31.1,1.1c8.1,0.4,14.2,1.7,18.2,4c3.9,2.3,5.9,5.9,5.9,10.7c0,2.6-0.6,5.2-1.8,7.7c-1.2,2.5-3.1,4.7-5.9,6.6
		c-2.7,1.9-6.3,3.5-10.8,4.7c-4.5,1.2-10,1.8-16.5,1.8c-10.4,0-18.6-1.3-24.4-3.9C245.4,309.5,242.5,305.5,242.5,299.8z M5.4,5h350
		v350H5.4V5z M220.5,301.6c0,4.5,1,8.6,3,12.4c2,3.8,5.1,7,9.5,9.7c4.4,2.7,9.9,4.9,16.7,6.4c6.8,1.5,15,2.3,24.6,2.3
		c10.1,0,18.9-1.1,26.2-3.2c7.3-2.1,13.4-5,18.2-8.6c4.8-3.6,8.3-7.8,10.6-12.5c2.3-4.7,3.4-9.8,3.4-15.1c0-4.9-1-9.2-3-12.9
		c-2-3.7-4.8-6.8-8.4-9.4c-3.6-2.5-7.9-4.5-12.9-5.8c-5-1.3-10.5-2.1-16.4-2.3l-31.3-1.2c-4.7-0.2-8.6-1.2-11.5-3.2
		c-2.9-2-4.3-4.5-4.3-7.5c0-2.4,0.5-4.7,1.5-6.6c1-2,2.3-4.1,3.8-6.3c2.5,1.6,6,2.9,10.3,4c4.4,1.1,9,1.6,14,1.6
		c6.9,0,13.2-1,18.9-3c5.7-2,10.7-4.8,14.8-8.5c4.1-3.6,7.3-8,9.5-13.1c2.3-5.1,3.4-10.7,3.4-16.9c0-4.3-0.6-8.2-1.8-11.9
		c-1.2-3.7-3-6.9-5.2-9.7h19.1v-16.8H290c-2.1-0.6-4.4-1.1-7.1-1.5c-2.7-0.4-5.5-0.6-8.4-0.6c-7,0-13.3,1-19,3
		c-5.7,2-10.6,4.8-14.7,8.5c-4.1,3.6-7.2,8-9.5,13.1c-2.3,5.1-3.4,10.7-3.4,16.9c0,3,0.2,5.7,0.7,8c0.4,2.3,1.1,4.5,1.9,6.5
		c0.8,2,1.8,3.9,3,5.6c1.1,1.7,2.5,3.5,4,5.3c-3.3,3.8-6.2,7.8-8.6,12.1c-2.4,4.3-3.6,9-3.6,14.1c0,1.8,0.2,3.7,0.7,5.6
		s1.2,3.7,2.1,5.4c1,1.7,2.2,3.3,3.7,4.7c1.5,1.4,3.3,2.6,5.3,3.6c-5.6,4-9.8,8.2-12.5,12.6C221.9,290.8,220.5,295.8,220.5,301.6z
		 M80.2,163.5l17.2,119.1h24.3l16.5-49.1l3.9-12.8l3.4,12.1l17.2,49.8h25l17.3-119.1h-20.4l-9.3,81.5l-1.8,16.7l-5.3-15.8
		l-18.6-52.8h-14.8l-17.3,53.5l-5.1,15.8l-2.1-18l-10-80.9L80.2,163.5L80.2,163.5z M256,220.9c2.3,2.2,5,3.9,8.1,5.2
		c3.1,1.2,6.6,1.8,10.4,1.8c4.1,0,7.8-0.7,11-2.1c3.2-1.4,5.9-3.3,8.1-5.6c2.2-2.4,3.8-5.1,5-8.2c1.1-3.1,1.7-6.3,1.7-9.6
		c0-3.8-0.6-7.3-1.9-10.4c-1.3-3.2-3.1-5.9-5.3-8.1c-2.3-2.2-5-3.9-8.1-5.2s-6.6-1.8-10.4-1.8c-4.1,0-7.8,0.7-11,2.1
		c-3.2,1.4-5.9,3.3-8.1,5.6c-2.2,2.3-3.8,5-5,8.1c-1.1,3.1-1.7,6.3-1.7,9.6c0,3.8,0.6,7.3,1.9,10.4C251.9,216,253.7,218.7,256,220.9
		z M519.9,106l-12.5,12.7c30.6,30.1,45.9,63.9,45.9,101.6c0,18.2-3.8,35.6-11.4,52.2c-7.6,16.6-19.1,32.5-34.5,47.8l12,12.2
		c10.8-10,19.7-19.9,26.8-29.8c7.1-9.9,12.7-19.6,16.9-29.2c4.2-9.6,7.2-19,8.9-28.2c1.7-9.2,2.6-18,2.6-26.6
		C574.6,177.3,556.3,139.7,519.9,106z M433.7,106c-10.1,9.4-18.7,18.9-25.8,28.5c-7.1,9.6-12.8,19.1-17.1,28.7s-7.4,19.1-9.4,28.7
		c-1.9,9.5-2.9,19.1-2.9,28.7c0,40.9,18.2,78.2,54.7,112l12.5-12.7c-15.2-15-26.7-31-34.4-47.9c-7.8-16.9-11.6-34.6-11.6-52.9
		c0-36.9,15.3-70.4,46-100.7L433.7,106z"/>
</g>
</svg>
